<svg width="56" height="45" viewBox="0 0 56 45" fill="none" xmlns="http://www.w3.org/2000/svg">
<path d="M50.75 31.6406H5.25C4.78587 31.6406 4.34075 31.8258 4.01256 32.1555C3.68437 32.4851 3.5 32.9322 3.5 33.3984L3.5 36.9141C3.5 37.3803 3.68437 37.8274 4.01256 38.157C4.34075 38.4867 4.78587 38.6719 5.25 38.6719H50.75C51.2141 38.6719 51.6592 38.4867 51.9874 38.157C52.3156 37.8274 52.5 37.3803 52.5 36.9141V33.3984C52.5 32.9322 52.3156 32.4851 51.9874 32.1555C51.6592 31.8258 51.2141 31.6406 50.75 31.6406ZM50.75 17.5781H5.25C4.78587 17.5781 4.34075 17.7633 4.01256 18.093C3.68437 18.4226 3.5 18.8697 3.5 19.3359L3.5 22.8516C3.5 23.3178 3.68437 23.7649 4.01256 24.0945C4.34075 24.4242 4.78587 24.6094 5.25 24.6094H50.75C51.2141 24.6094 51.6592 24.4242 51.9874 24.0945C52.3156 23.7649 52.5 23.3178 52.5 22.8516V19.3359C52.5 18.8697 52.3156 18.4226 51.9874 18.093C51.6592 17.7633 51.2141 17.5781 50.75 17.5781ZM50.75 3.51562H5.25C4.78587 3.51563 4.34075 3.70082 4.01256 4.03048C3.68437 4.36013 3.5 4.80724 3.5 5.27344L3.5 8.78906C3.5 9.25526 3.68437 9.70237 4.01256 10.032C4.34075 10.3617 4.78587 10.5469 5.25 10.5469H50.75C51.2141 10.5469 51.6592 10.3617 51.9874 10.032C52.3156 9.70237 52.5 9.25526 52.5 8.78906V5.27344C52.5 4.80724 52.3156 4.36013 51.9874 4.03048C51.6592 3.70082 51.2141 3.51563 50.75 3.51562Z" fill="#3C91E6"/>
</svg>
